<svg width="32" height="32" viewBox="0 0 32 32" fill="none" xmlns="http://www.w3.org/2000/svg">
<path d="M28 10L25 8.24933M28 10V13M28 10L25 11.7507M4 10L7 8.24933M4 10L7 11.7507M4 10V13M16 17L19 15.2493M16 17L13 15.2493M16 17V20M16 29L19 27.2493M16 29V26M16 29L13 27.2493M13 4.74933L16 3L19 4.75067M28 19V22L25 23.7507M7 23.7507L4 22V19" stroke="white" stroke-width="1.5" stroke-linecap="round" stroke-linejoin="round"/>
<path d="M13 9L14.5 10.2857L13 11.5714" stroke="white" stroke-width="0.5" stroke-linecap="round" stroke-linejoin="round"/>
<rect x="15" y="11" width="4" height="0.5" rx="0.25" fill="white"/>
</svg>
